HIERARCHY
ROOT Hips
{
	OFFSET 0.00000 0.00000 0.00000
	CHANNELS 6 Xposition Yposition Zposition Zrotation Yrotation Xrotation 
	JOINT LHipJoint
	{
		OFFSET 0 0 0
		CHANNELS 3 Zrotation Yrotation Xrotation
		JOINT LeftHip
		{
			OFFSET 1.28858 -1.83292 1.03970
			CHANNELS 3 Zrotation Yrotation Xrotation
			JOINT LeftKnee
			{
				OFFSET 2.47846 -6.80952 0.00000
				CHANNELS 3 Zrotation Yrotation Xrotation
				JOINT LeftAnkle
				{
					OFFSET 2.75274 -7.56311 0.00000
					CHANNELS 3 Zrotation Yrotation Xrotation
					JOINT LeftToe
					{
						OFFSET 0.12848 -0.35301 1.68223
						CHANNELS 3 Zrotation Yrotation Xrotation
						End Site
						{
							OFFSET 0.00000 -0.00000 0.87311
						}
					}
				}
			}
		}
	}
	JOINT RHipJoint
	{
		OFFSET 0 0 0
		CHANNELS 3 Zrotation Yrotation Xrotation
		JOINT RightHip
		{
			OFFSET -1.31183 -1.83292 1.03970
			CHANNELS 3 Zrotation Yrotation Xrotation
			JOINT RightKnee
			{
				OFFSET -2.44740 -6.72417 0.00000
				CHANNELS 3 Zrotation Yrotation Xrotation
				JOINT RightAnkle
				{
					OFFSET -2.67343 -7.34519 0.00000
					CHANNELS 3 Zrotation Yrotation Xrotation
					JOINT RightToe
					{
						OFFSET -0.16914 -0.46471 1.77626
						CHANNELS 3 Zrotation Yrotation Xrotation
						End Site
						{
							OFFSET -0.00000 -0.00000 0.92777
						}
					}
				}
			}
		}
	}
	JOINT lowerback
	{
		OFFSET 0 0 0
		CHANNELS 3 Zrotation Yrotation Xrotation
		JOINT Chest
		{
			OFFSET 0.01249 2.14252 0.03842
			CHANNELS 3 Zrotation Yrotation Xrotation
			JOINT Chest2
			{
				OFFSET -0.02957 2.14199 -0.03751
				CHANNELS 3 Zrotation Yrotation Xrotation
				JOINT lowerneck
				{
					OFFSET 0 0 0
					CHANNELS 3 Zrotation Yrotation Xrotation
					JOINT Neck
					{
						OFFSET -0.01678 1.65709 -0.05476
						CHANNELS 3 Zrotation Yrotation Xrotation
						JOINT Head
						{
							OFFSET 0.07912 1.58331 -0.11843
							CHANNELS 3 Zrotation Yrotation Xrotation
							End Site
							{
								OFFSET 0.03298 1.73940 -0.04271
							}
						}
					}
				}
				JOINT LeftCollar
				{
					OFFSET 0 0 0
					CHANNELS 3 Zrotation Yrotation Xrotation
					JOINT LeftShoulder
					{
						OFFSET 3.39556 1.16496 0.08673
CHANNELS 3 Zrotation Xrotation Yrotation
						JOINT LeftElbow
						{
OFFSET 0 -5.239100 -0.000000
CHANNELS 3 Zrotation Xrotation Yrotation
							JOINT LeftWrist
							{
OFFSET 0 -3.314670 0.000000
CHANNELS 3 Zrotation Xrotation Yrotation
								JOINT lhand
								{
									OFFSET 0 0 0
CHANNELS 3 Zrotation Xrotation Yrotation
									JOINT LFingers
									{
OFFSET 0 -0.965900 0.000000
CHANNELS 3 Zrotation Xrotation Yrotation
										End Site
										{
OFFSET 0 -0.778730 0.000000
										}
									}
								}
								JOINT LThumb
								{
OFFSET 0 0.000000 0.000000
CHANNELS 3 Zrotation Xrotation Yrotation
									End Site
									{
OFFSET 0 -0.790620 0.790620
									}
								}
							}
						}
					}
				}
				JOINT RightCollar
				{
					OFFSET 0 0 0
					CHANNELS 3 Zrotation Yrotation Xrotation
					JOINT RightShoulder
					{
						OFFSET -3.27193 1.31331 0.33940
CHANNELS 3 Zrotation Xrotation Yrotation
						JOINT RightElbow
						{
OFFSET 0 -5.302520 0.000000
CHANNELS 3 Zrotation Xrotation Yrotation
							JOINT RightWrist
							{
OFFSET 0 -3.678750 0.000000
CHANNELS 3 Zrotation Xrotation Yrotation
								JOINT rhand
								{
									OFFSET 0 0 0
CHANNELS 3 Zrotation Xrotation Yrotation
									JOINT RFingers
									{
OFFSET 0 -0.594810 0.000000
CHANNELS 3 Zrotation Xrotation Yrotation
										End Site
										{
OFFSET 0 -0.479550 0.000000
										}
									}
								}
								JOINT RThumb
								{
OFFSET 0 0.000000 0.000000
CHANNELS 3 Zrotation Xrotation Yrotation
									End Site
									{
OFFSET 0 -0.486870 0.486870
									}
								}
							}
						}
					}
				}
			}
		}
	}
}
MOTION
Frames: 6
Frame Time: .0083333
7.1448 16.4153 -18.6095 -338.5280 67.0446 -332.5400 0.0000 0.0000 0.0000 6.2501 -9.7978 -20.6231 11.0829 17.9754 63.0504 1.4760 9.9780 21.8376 0.4528 4.3169 11.9699 0.0000 0.0000 0.0000 25.4061 2.7843 -33.1461 -7.3547 -15.6235 50.2034 -5.7718 -7.3223 -48.1721 -1.1505 -6.8105 19.1550 -5.3410 -4.0301 5.3304 -0.6109 -5.6412 1.1827 2.6840 -2.7917 -1.3039 -9.5430 -14.3907 3.7477 20.1539 -18.8721 -7.3753 7.3129 -9.8037 0.1600 -0.0000 -0.0000 0.0000 44.2011 18.2447 -78.172 15.2803 -24.5352 3.3415 13.4536 -2.1155 17.4262 0.0 0.0 0.0 -7.1250 0.0 0.0 -9.5557 12.2781 -7.4113 -0.0000 -0.0000 0.0000 -28.3282 -2.0478 29.9273 -86.6866 -59.9585 -57.1309 -16.1071 7.4934 31.2068 0.0 0.0 0.0 7.1250 0.0 -0.0 18.4039 61.2711 -7.4342
7.1803 16.4510 -18.4526 -340.1860 65.9672 -334.5710 0.0000 0.0000 0.0000 6.2396 -11.4132 -21.7366 12.1513 18.4539 66.4675 2.0695 9.2765 25.8259 1.0755 6.5921 18.5125 0.0000 0.0000 0.0000 26.3058 2.6650 -31.4663 -7.0736 -15.3935 49.1520 -5.6702 -6.2808 -47.3852 -1.2659 -7.1318 20.1063 -5.0100 -4.2307 5.5959 -0.4030 -5.9036 1.1868 2.7499 -2.9209 -1.4370 -10.0898 -14.0446 3.5843 20.1842 -18.5216 -6.6814 7.3777 -9.5894 0.3914 0.0000 -0.0000 0.0000 44.8535 18.9978 -78.0458 14.5215 -23.4752 3.0327 9.7313 -0.7168 14.5054 0.0 0.0 0.0 -7.1250 0.0 0.0 -12.0598 15.4854 -8.5974 0.0000 -0.0000 0.0000 -31.9741 -4.6916 30.4255 -93.0600 -59.9646 -62.6497 -17.1362 8.2479 31.508 0.0 0.0 0.0 7.1250 0.0 -0.0 17.5173 61.8113 -7.2877
7.2108 16.4969 -18.2936 -341.8130 64.4205 -336.4240 0.0000 0.0000 0.0000 6.0423 -12.3987 -22.9911 13.2801 18.8810 69.9933 2.3519 9.6695 27.5746 1.8479 8.5418 24.3723 0.0000 0.0000 0.0000 27.0510 3.1638 -29.6063 -6.7714 -15.1363 48.0044 -5.6363 -4.8518 -46.7420 -1.5436 -7.8426 22.2369 -4.7003 -4.1337 5.7413 -0.4276 -5.7676 1.1551 2.5627 -2.8497 -1.5953 -9.8939 -13.8810 3.3841 19.9256 -18.3618 -6.0373 7.2445 -9.4772 0.5385 0.0000 0.0000 0.0000 46.1542 19.4146 -78.2806 13.8513 -22.5217 2.7709 5.8158 -0.2112 11.0009 0.0 0.0 0.0 -7.1250 0.0 0.0 -14.9116 19.1085 -9.5352 0.0000 0.0000 0.0000 -35.0631 -7.063 29.9717 -98.3357 -59.7358 -67.2125 -17.8337 8.7943 30.8435 0.0 0.0 0.0 7.1250 0.0 -0.0 16.2362 61.3492 -6.5606
7.2390 16.5457 -18.1107 -343.3860 62.4298 -338.1520 0.0000 0.0000 0.0000 5.7596 -12.7166 -24.2425 14.4097 19.2336 73.4519 2.4421 9.0661 28.1196 1.5122 7.7660 22.0056 0.0000 0.0000 0.0000 27.7686 3.4466 -27.8728 -6.4387 -14.8404 46.7181 -5.4585 -3.6712 -45.6264 -1.7343 -8.2892 23.5960 -4.8225 -3.9511 5.7015 -0.3532 -5.5310 1.1218 2.6917 -2.7312 -1.6067 -9.6496 -13.7134 3.0571 19.3762 -18.2007 -5.3157 7.0078 -9.3518 0.6944 -0.0000 0.0000 0.0000 47.0608 19.988 -77.5733 13.0441 -21.3518 2.4693 2.0113 -0.0082 8.4075 0.0 0.0 0.0 -7.1250 0.0 0.0 -17.7979 21.6836 -10.467 -0.0000 0.0000 0.0000 -38.0791 -9.4822 29.4857 -102.7095 -59.3808 -70.9839 -18.7997 9.5065 29.9746 0.0 0.0 0.0 7.1250 0.0 -0.0 14.5479 60.744 -5.6517
7.2805 16.6150 -17.9201 -344.8160 60.7131 -339.9260 0.0000 0.0000 0.0000 5.4307 -13.3080 -25.1088 15.4500 19.4962 76.5884 2.4565 8.7064 28.2142 1.3490 7.3529 20.7650 0.0000 0.0000 0.0000 28.6656 3.2962 -25.4959 -5.9515 -14.3812 44.7868 -5.2408 -2.7422 -44.4245 -1.9343 -8.7278 24.9476 -4.7961 -3.8705 5.7268 -0.2151 -5.4193 1.1856 2.8116 -2.6787 -1.5527 -9.4351 -13.5250 2.5833 18.7355 -18.0145 -4.5068 6.7369 -9.2037 0.8918 -0.0000 -0.0000 0.0000 47.7284 20.5858 -76.0868 12.2002 -20.1042 2.1706 -1.699 0.2947 6.3429 0.0 0.0 0.0 -7.1250 0.0 0.0 -20.6640 23.6331 -11.3791 -0.0000 -0.0000 0.0000 -41.4907 -12.2921 29.1411 -105.7324 -59.0438 -73.5809 -20.1065 10.412 29.3116 0.0 0.0 0.0 7.1250 0.0 -0.0 12.6656 60.4081 -4.8044
7.3314 16.7032 -17.7283 -345.6490 59.3788 -341.2440 0.0000 0.0000 0.0000 4.8688 -14.5238 -25.7698 16.3766 19.6823 79.3517 2.4892 8.1259 28.4325 1.3431 7.3375 20.7192 0.0000 0.0000 0.0000 29.3345 2.6682 -22.8222 -5.3571 -13.7750 42.3437 -4.9861 -1.8545 -43.0643 -2.1710 -9.2136 26.4657 -4.7964 -3.9000 5.8099 -0.0881 -5.4576 1.2747 2.9461 -2.7012 -1.4911 -9.3021 -13.2867 2.1081 18.1916 -17.7577 -3.7118 6.5135 -9.0233 1.0960 -0.0000 -0.0000 0.0000 48.3213 21.1463 -74.2131 11.3241 -18.7833 1.879 -4.8446 0.7221 4.789 0.0 0.0 0.0 -7.1250 0.0 0.0 -23.1161 25.0225 -12.1392 -0.0000 -0.0000 0.0000 -45.4158 -14.9604 28.8481 -108.6667 -58.6416 -76.0921 -21.4027 11.2644 29.2923 0.0 0.0 0.0 7.1250 0.0 -0.0 11.2105 60.7028 -4.3224
